<?xml version="1.0" standalone="no"?><!DOCTYPE svg PUBLIC "-//W3C//DTD SVG 1.1//EN" "http://www.w3.org/Graphics/SVG/1.1/DTD/svg11.dtd"><svg t="1742902938345" class="icon" viewBox="0 0 1024 1024" version="1.1" xmlns="http://www.w3.org/2000/svg" p-id="3200" xmlns:xlink="http://www.w3.org/1999/xlink" width="64" height="64"><path d="M422.4 488.704c-8.704-7.424-18.944-13.056-29.696-16.64-10.752-3.584-22.016-5.376-33.28-5.376-17.408 0-32.256 3.328-44.288 10.24 4.864-9.984 11.264-18.944 19.2-26.624 8.448-8.192 18.176-14.592 29.184-19.456 12.544-5.376 25.856-8.704 39.68-9.728l7.168-0.512 13.056-50.176-21.248-0.256c-24.832 1.536-49.152 7.936-71.68 18.432-18.688 8.96-35.584 22.016-48.896 37.888-12.8 15.616-22.528 33.536-28.416 52.736-6.144 19.968-9.216 40.96-9.216 61.952-0.256 16.896 2.048 33.792 7.168 49.664 4.352 13.312 11.52 25.6 20.992 35.584 9.472 9.472 20.992 16.64 33.792 20.736 13.824 4.352 28.16 6.4 42.496 6.4 12.8 0 25.6-2.048 37.632-6.144 12.032-3.84 23.296-9.984 33.024-17.92 9.984-8.192 17.92-18.432 23.552-29.952 6.144-12.8 9.216-27.136 8.96-41.472 0.256-14.08-2.304-27.904-7.936-40.96-4.864-10.496-12.288-20.48-21.248-28.416z m-90.368 31.488c5.632-2.048 11.776-3.072 17.664-2.816 5.888 0 11.52 0.768 17.152 2.56 4.608 1.536 8.96 3.84 12.544 7.168 3.584 3.584 6.656 7.936 8.448 12.544 2.304 6.4 3.328 13.312 3.328 20.224 0.256 6.4-1.024 13.056-3.328 18.944-2.048 4.864-5.12 9.472-8.96 13.056-3.84 3.584-8.704 6.4-13.568 8.192-5.632 2.048-11.776 3.072-17.92 2.816-13.568 0-23.552-3.328-30.72-10.24s-10.496-17.664-10.496-32.256c0-6.4 1.024-12.8 3.328-18.688 2.048-5.12 5.12-9.472 9.216-13.312 3.328-3.84 8.192-6.656 13.312-8.192zM664.064 520.96c-6.144-6.4-13.056-11.776-20.736-15.872l-2.56-1.536c6.144-4.352 11.776-9.216 16.64-14.592 10.24-11.264 15.616-25.856 15.616-43.008 0-10.496-2.56-20.992-7.68-30.208-5.12-8.96-12.032-16.64-20.224-22.528-8.704-6.4-18.688-11.008-29.184-14.08-23.296-6.4-47.872-6.4-71.168 0-10.496 3.072-20.224 7.68-28.928 13.824-8.192 5.888-15.104 13.568-20.224 22.528-5.12 9.216-7.68 19.712-7.68 30.208-0.512 15.616 5.12 30.976 15.616 42.752 5.12 5.632 10.496 10.496 16.64 14.848l-3.072 1.792c-7.424 4.352-14.336 9.728-20.48 16.128-6.4 6.656-11.52 14.08-15.36 22.528-4.352 9.472-6.4 19.968-6.144 30.464-0.256 13.056 3.072 26.112 9.472 37.376 6.144 10.24 14.848 18.688 24.832 25.088 10.24 6.4 21.76 10.752 33.536 13.312 12.288 2.56 24.576 4.096 37.12 4.096s24.832-1.28 36.864-3.84c12.032-2.56 23.296-7.168 33.792-13.312 10.24-6.144 18.688-14.848 24.832-25.088 6.656-11.264 9.984-24.32 9.728-37.376 0.256-10.496-1.792-20.992-6.144-30.464-3.584-8.704-8.704-16.384-15.104-23.04z m-51.2-61.44c-1.792 3.328-4.096 6.4-7.168 8.704-3.584 2.816-7.68 5.376-12.032 7.424-4.352 1.792-8.448 3.584-13.056 4.864-4.352-1.28-8.704-3.072-13.056-4.864-4.352-2.048-8.448-4.352-12.288-7.424-3.072-2.304-5.376-5.376-7.168-8.704-1.792-3.328-2.56-7.168-2.56-11.008-0.512-6.656 2.56-13.312 7.68-17.664 5.632-4.864 14.592-7.168 27.136-7.168s21.504 2.304 27.136 7.168c5.12 4.352 7.936 11.008 7.68 17.664 0.256 3.584-0.768 7.424-2.304 11.008z m-73.216 98.048c2.304-4.352 5.376-8.192 9.216-11.52 4.352-3.84 9.472-7.168 14.592-9.472 5.632-2.56 11.264-4.864 17.152-6.656 5.888 1.792 11.52 3.84 16.896 6.656 5.376 2.56 10.496 5.888 14.848 9.728 3.84 3.328 6.912 7.168 9.216 11.52 2.048 4.096 3.328 8.704 3.328 13.312 0 9.984-3.328 17.664-9.984 23.296-7.168 5.888-18.432 8.96-34.048 8.96s-26.624-3.072-33.792-8.96c-6.912-5.632-9.984-13.056-9.984-23.296-0.512-4.608 0.512-9.216 2.56-13.568zM916.224 543.744c-3.84-8.448-8.96-16.128-15.36-22.784-6.144-6.4-13.056-11.776-20.736-15.872l-2.56-1.536c6.144-4.352 11.776-9.216 16.64-14.592 10.24-11.264 15.616-25.856 15.616-43.008 0-10.496-2.56-20.992-7.68-30.208-5.12-8.96-11.776-16.64-20.224-22.528-8.704-6.144-18.688-11.008-29.184-13.824-23.296-6.4-47.872-6.4-71.168 0-10.496 3.072-20.224 7.68-28.928 14.08-8.192 5.888-15.104 13.568-20.224 22.528-12.544 23.552-9.472 52.48 7.936 72.96 4.864 5.632 10.496 10.496 16.64 14.848l-3.072 1.792c-7.424 4.352-14.336 9.728-20.48 16.128-6.4 6.656-11.52 14.336-15.36 22.528-4.096 9.472-6.4 19.968-6.144 30.464-0.256 13.056 3.072 26.112 9.472 37.376 6.144 10.24 14.848 18.688 24.832 25.088 10.24 6.4 21.76 10.752 33.536 13.312 12.288 2.56 24.576 4.096 37.12 4.096s24.832-1.28 36.864-3.84c12.032-2.56 23.296-6.912 33.792-13.312 10.24-6.144 18.688-14.848 24.832-25.088 6.656-11.264 9.984-24.32 9.472-37.376 0.512-11.264-1.536-21.76-5.632-31.232z m-66.816-84.48c-1.792 3.328-4.096 6.4-7.168 8.704-3.84 2.816-7.68 5.376-12.032 7.424-4.096 1.792-8.448 3.584-13.056 4.864-4.352-1.28-8.704-3.072-12.8-4.864-4.352-1.792-8.448-4.352-12.288-7.424-3.072-2.304-5.376-5.376-7.168-8.704-1.792-3.328-2.56-7.168-2.56-11.008-0.256-6.656 2.56-13.312 7.68-17.664 5.632-4.864 14.848-7.168 27.136-7.168s21.504 2.304 26.88 7.168c5.12 4.352 7.936 11.008 7.68 17.664 0.256 3.84-0.512 7.68-2.304 11.008z m-73.216 98.304c2.304-4.352 5.376-8.192 8.96-11.52 4.352-3.84 9.216-7.168 14.592-9.472 5.632-2.56 11.264-4.608 17.152-6.4 5.888 1.792 11.52 3.84 16.896 6.656 5.376 2.56 10.24 5.888 14.848 9.728 3.84 3.328 6.912 7.168 9.216 11.52 2.048 4.096 3.072 8.704 3.072 13.312 0 9.984-3.328 17.664-9.984 23.296-7.168 5.888-18.688 8.96-34.048 8.96s-26.624-3.072-33.792-8.96c-6.912-5.632-9.984-13.056-9.984-23.296 0-4.864 1.024-9.472 3.072-13.824zM124.416 450.304l29.696-9.216v210.688h58.624V368.64L104.96 403.456z" fill="#231815" p-id="3201"></path></svg>