<?xml version="1.0" standalone="no"?><!DOCTYPE svg PUBLIC "-//W3C//DTD SVG 1.1//EN" "http://www.w3.org/Graphics/SVG/1.1/DTD/svg11.dtd"><svg t="1742797867662" class="icon" viewBox="0 0 1510 1024" version="1.1" xmlns="http://www.w3.org/2000/svg" p-id="5839" xmlns:xlink="http://www.w3.org/1999/xlink" width="94.375" height="64"><path d="M857.864307 740.058997h-154.053098c-9.061947 0-12.082596 0-6.041297-9.061947 12.082596-24.165192 24.165192-51.351032 39.268436-75.516224 3.020649-6.041298 6.041298-9.061947 15.103245-9.061947h75.516224c9.061947 0 9.061947-3.020649 9.061947-12.082596v-262.79646c0-9.061947-3.020649-12.082596-12.082596-9.061947h-42.289085c-9.061947 0-12.082596-3.020649-12.082596-9.061947V280.920354c0-9.061947 3.020649-12.082596 12.082596-12.082596h196.342182c6.041298 0 9.061947 0 9.061947 9.061947v75.516224c0 6.041298-3.020649 9.061947-9.061947 9.061947H936.40118c-9.061947 0-12.082596 3.020649-12.082596 12.082596v262.79646c0 6.041298 3.020649 9.061947 9.061947 9.061947h75.516224c9.061947 0 12.082596 3.020649 12.082596 12.082596v72.495575c0 9.061947-3.020649 12.082596-12.082596 12.082596-48.330383-3.020649-99.681416-3.020649-151.032448-3.020649zM320.188791 456.117994v199.362832c0 15.103245-3.020649 30.20649-12.082596 45.309734-15.103245 30.20649-42.289086 39.268437-75.516224 36.247788-33.227139-3.020649-54.371681-21.144543-63.433629-51.351032-9.061947-30.20649-9.061947-27.185841 21.144543-30.20649 12.082596 0 27.185841 6.041298 36.247788-3.020649 6.041298-6.041298 3.020649-21.144543 3.020649-33.227139V244.672566c0-9.061947 3.020649-12.082596 12.082595-12.082595h69.474927c9.061947 0 12.082596 3.020649 12.082596 12.082595-3.020649 75.516224-3.020649 144.99115-3.020649 211.445428z" p-id="5840"></path><path d="M734.017699 537.675516c-12.082596 21.144543-21.144543 42.289086-30.20649 63.433629-6.041298 15.103245-15.103245 18.123894-27.18584 18.123893h-69.474927c-6.041298 0-12.082596 0-18.123893-3.020649-21.144543-6.041298-27.185841-21.144543-21.144543-42.289085 12.082596-33.227139 30.20649-63.433628 45.309734-96.660767 3.020649-6.041298 6.041298-9.061947 9.061947-18.123894h-60.412979c-24.165192-6.041298-33.227139-21.144543-24.165192-45.309734 9.061947-27.185841 24.165192-54.371681 36.247788-78.536874 15.103245-27.185841 27.185841-57.39233 42.289085-84.578171 3.020649-6.041298 6.041298-9.061947 15.103245-9.061947h72.495575c9.061947 0 9.061947 3.020649 6.041298 9.061947l-54.371681 108.743363c-3.020649 3.020649-3.020649 6.041298-6.041298 12.082596s0 9.061947 6.041298 12.082596c6.041298 3.020649 6.041298-3.020649 9.061947-6.041298 3.020649-6.041298 6.041298-9.061947 15.103245-9.061947h72.495575c9.061947 0 9.061947 3.020649 6.041298 9.061947-24.165192 45.309735-45.309735 93.640118-69.474926 138.949852-9.061947 18.123894-6.041298 24.165192 15.103244 24.165192 6.041298-3.020649 18.123894-3.020649 30.20649-3.020649zM93.640118 697.769912C75.516224 664.542773 60.412979 631.315634 42.289086 598.088496c-3.020649-3.020649-3.020649-6.041298 0-9.061947 12.082596-27.185841 12.082596-54.371681 12.082595-84.578171 3.020649-45.309735 6.041298-87.59882 9.061947-132.908555 0-6.041298 3.020649-9.061947 9.061947-9.061947H151.032448c6.041298 0 9.061947 0 9.061947 9.061947-6.041298 66.454277-9.061947 132.908555-18.123894 199.362832-6.041298 42.289086-21.144543 84.578171-48.330383 120.825959 3.020649 0 0 3.020649 0 6.041298zM431.952802 362.477876h36.247788c9.061947 0 9.061947 3.020649 12.082596 12.082596 3.020649 60.412979 9.061947 120.825959 15.103245 181.238938 0 6.041298 0 15.103245 3.020649 21.144543 6.041298 12.082596 3.020649 24.165192-3.020649 36.247787-12.082596 24.165192-24.165192 51.351032-36.247788 75.516225-3.020649 9.061947-6.041298 9.061947-12.082596 0-21.144543-33.227139-33.227139-66.454277-42.289085-105.722714-9.061947-36.247788-9.061947-75.516224-12.082596-111.764012-3.020649-33.227139-6.041298-63.433628-9.061947-96.660767 0-9.061947 0-12.082596 12.082596-12.082596 12.082596 3.020649 24.165192 0 36.247787 0zM579.964602 740.058997c-18.123894 0-45.309735 3.020649-66.454278-3.020649-9.061947-3.020649-12.082596-6.041298-6.041297-12.082596 15.103245-27.185841 27.185841-51.351032 39.268436-78.536873 3.020649-3.020649 3.020649-9.061947 9.061947-6.041298 21.144543 9.061947 45.309735 6.041298 69.474926 6.041298h60.41298c6.041298 0 9.061947 3.020649 6.041298 9.061947-15.103245 27.185841-27.185841 54.371681-42.289086 81.557522-3.020649 6.041298-6.041298 6.041298-12.082596 6.041298-15.103245-3.020649-33.227139-3.020649-57.39233-3.020649zM1395.539823 362.477876c-30.20649 0-30.20649 0-30.20649-30.20649 0-9.061947 0-21.144543 3.020649-30.206489 6.041298-24.165192 27.185841-36.247788 54.371682-33.227139 21.144543 3.020649 39.268437 24.165192 39.268436 48.330384s-18.123894 42.289086-42.289085 45.309734h-24.165192zM1211.280236 640.377581v90.619469c0 9.061947-3.020649 12.082596-12.082596 12.082596h-72.495575c-9.061947 0-12.082596-3.020649-12.082596-12.082596v-181.238938c0-9.061947-3.020649-12.082596-12.082596-12.082596h-69.474926c-9.061947 0-12.082596 0-12.082596-9.061947V453.097345c0-9.061947 3.020649-9.061947 12.082596-9.061947h72.495575c9.061947 0 12.082596-3.020649 9.061947-12.082596v-57.39233c0-9.061947-3.020649-9.061947-12.082596-9.061947h-42.289085c-6.041298 0-9.061947 0-9.061947-9.061947V280.920354c0-6.041298 3.020649-9.061947 9.061947-9.061947h42.289085c6.041298 0 9.061947-3.020649 9.061947-9.061947 0-21.144543 0-21.144543 24.165192-21.144543h60.412979c6.041298 0 9.061947 3.020649 9.061947 9.061947 0 21.144543 0 21.144543 21.144543 21.144543 27.185841 0 51.351032 6.041298 72.495575 18.123894 30.20649 18.123894 42.289086 48.330383 42.289086 81.557522v60.412979c0 9.061947 3.020649 12.082596 12.082595 12.082596 33.227139 0 60.412979 9.061947 81.557523 36.247788 12.082596 15.103245 18.123894 36.247788 18.123893 54.371681v120.825959c0 45.309735-27.185841 78.536873-72.495575 84.578171-18.123894 3.020649-39.268437 3.020649-57.39233-3.020649-30.20649-9.061947-51.351032-36.247788-54.371682-69.474926 0-9.061947 3.020649-6.041298 9.061947-6.041298h75.516224c9.061947 0 12.082596-3.020649 12.082596-12.082596v-78.536873c0-21.144543-12.082596-33.227139-33.227138-33.227139h-114.784661c-6.041298 0-9.061947 3.020649-9.061947 9.061947 3.020649 30.20649 3.020649 60.412979 3.020649 93.640118z m48.330383-238.631268c0-39.268437 3.020649-39.268437-42.289085-39.268437-6.041298 0-9.061947 3.020649-9.061947 9.061947v63.433628c0 6.041298 3.020649 9.061947 9.061947 9.061947h33.227139c6.041298 0 9.061947-3.020649 9.061946-9.061947v-27.18584-6.041298z" p-id="5841"></path></svg>